<svg width="0" height="0" class="hidden">
  <symbol fill="none" xmlns="http://www.w3.org/2000/svg" viewBox="0 0 26 26" id="wsapp">
    <path fill-rule="evenodd" clip-rule="evenodd" d="M18.8657 15.5807C18.5437 15.4195 16.9611 14.6409 16.666 14.5332C16.371 14.4259 16.1564 14.3723 15.9417 14.6944C15.7271 15.0166 15.1101 15.7418 14.9224 15.9567C14.7346 16.1715 14.5468 16.1984 14.2249 16.0372C13.903 15.8761 12.8657 15.5362 11.6362 14.4394C10.6792 13.5858 10.0331 12.5317 9.84532 12.2094C9.65749 11.8871 9.82521 11.7129 9.9864 11.5523C10.1313 11.4082 10.3084 11.1763 10.4693 10.9884C10.6303 10.8004 10.6839 10.666 10.7912 10.4514C10.8985 10.2364 10.8449 10.0485 10.7644 9.88739C10.6839 9.72625 10.0401 8.14165 9.77184 7.49704C9.51053 6.86937 9.24513 6.95439 9.04753 6.94443C8.85998 6.93512 8.64514 6.93313 8.43058 6.93313C8.21597 6.93313 7.86718 7.0137 7.57204 7.33589C7.27704 7.65817 6.44539 8.43707 6.44539 10.0215C6.44539 11.6061 7.59887 13.1368 7.75987 13.3517C7.92088 13.5666 10.0298 16.8181 13.2592 18.2126C14.0272 18.5443 14.6268 18.7423 15.0944 18.8906C15.8655 19.1357 16.5673 19.1011 17.1221 19.0181C17.7406 18.9258 19.0267 18.2394 19.2949 17.4876C19.5632 16.7354 19.5632 16.091 19.4827 15.9567C19.4022 15.8224 19.1876 15.7418 18.8657 15.5807ZM12.9919 23.6007H12.9876C11.066 23.6 9.18143 23.0838 7.53729 22.1081L7.14625 21.876L3.09336 22.9392L4.17511 18.9876L3.92057 18.5824C2.84864 16.8775 2.28245 14.907 2.28329 12.8835C2.28565 6.97945 7.0895 2.17598 12.9962 2.17598C15.8564 2.177 18.545 3.2923 20.567 5.31646C22.5887 7.34047 23.7014 10.0309 23.7003 12.8922C23.6979 18.7968 18.8942 23.6007 12.9919 23.6007ZM22.1056 3.77837C19.6732 1.34312 16.4384 0.00138996 12.9919 0C5.89047 0 0.110826 5.77927 0.107954 12.8828C0.107027 15.1536 0.700262 17.3698 1.8277 19.3237L0 26L6.8298 24.2084C8.71167 25.2348 10.8304 25.7759 12.9867 25.7765H12.992C20.0926 25.7765 25.8727 19.9967 25.8756 12.8931C25.8769 9.45058 24.538 6.21359 22.1056 3.77837Z" fill="white"></path>
  </symbol>
  <symbol fill="none" xmlns="http://www.w3.org/2000/svg" viewBox="0 0 12 20" id="placemark">
    <path d="M5.54182 18.8754C5.64275 19.0314 5.81508 19.1247 6 19.1247C6.18492 19.1247 6.35725 19.0314 6.45818 18.8754C6.4833 18.8367 8.99454 14.9427 10.6544 11.3618C11.4932 9.55192 12 8.4594 12 6.47672C12 3.29291 9.75602 0 6 0C2.24405 0 0 3.29291 0 6.47672C0 8.45946 0.506695 9.55198 1.34565 11.3618C3.00546 14.9427 5.51676 18.8367 5.54182 18.8754ZM6 2.72728C7.80492 2.72728 9.27272 4.19508 9.27272 6C9.27272 7.80492 7.80492 9.27272 6 9.27272C4.19509 9.27272 2.72728 7.80492 2.72728 6C2.72728 4.19508 4.19509 2.72728 6 2.72728Z" fill="#0D49EC"></path>
    <path d="M6.00015 8.18096C7.20345 8.18096 8.18194 7.20241 8.18194 5.99917C8.18194 4.79587 7.20338 3.81738 6.00015 3.81738C4.79685 3.81738 3.81836 4.79594 3.81836 5.99917C3.81836 7.20241 4.79691 8.18096 6.00015 8.18096Z" fill="#0D49EC"></path>
  </symbol>
  <symbol fill="none" xmlns="http://www.w3.org/2000/svg" viewBox="0 0 19 19" id="clock">
    <path fill-rule="evenodd" clip-rule="evenodd" d="M17.1 9.5C17.1 5.30955 13.6904 1.9 9.5 1.9C5.30955 1.9 1.9 5.30955 1.9 9.5C1.9 13.6904 5.30955 17.1 9.5 17.1C13.6904 17.1 17.1 13.6904 17.1 9.5ZM19 9.5C19 14.7468 14.7468 19 9.5 19C4.25315 19 0 14.7468 0 9.5C0 4.25315 4.25315 0 9.5 0C14.7468 0 19 4.25315 19 9.5ZM15.2 10.45C15.2 10.9744 14.7744 11.4 14.25 11.4H10.45C9.40025 11.4 8.55 10.5497 8.55 9.5V4.75C8.55 4.2256 8.9756 3.8 9.5 3.8C10.0244 3.8 10.45 4.2256 10.45 4.75V8.55C10.45 9.0725 10.8775 9.5 11.4 9.5H14.25C14.7744 9.5 15.2 9.9256 15.2 10.45Z" fill="#0D49EC"></path>
  </symbol>
  <symbol fill="none" xmlns="http://www.w3.org/2000/svg" viewBox="0 0 26 15" id="mail">
    <path d="M25.515 12.6V1.8C25.515 0.804 24.51 0 23.265 0H2.25C1.005 0 0 0.804 0 1.8V12.6C0 13.596 1.005 14.4 2.25 14.4H23.265C24.51 14.4 25.515 13.596 25.515 12.6ZM23.5156 2.2002C24.0106 2.5962 23.775 2.472 23.505 2.676L17 7.5L23 12.5C23.18 12.668 23.355 12.624 23.355 12.624C23.355 12.624 22.71 12.804 22.515 12.684L15.96 8.208L12.75 10.548L9.555 8.208L3 12.684C2.805 12.804 2.16 12.624 2.16 12.624C2.16 12.624 2.32 12.668 2.5 12.5L8.5 7.5L2.01 2.676C1.74 2.472 1.52062 2.5962 2.01562 2.2002C2.51063 1.8042 2.59562 1.9122 3.01562 2.2002L12.75 8.7002L22.5156 2.2002C22.9356 1.9122 23.0206 1.8042 23.5156 2.2002Z" fill="#0D49EC"></path>
  </symbol>
  <symbol fill="none" xmlns="http://www.w3.org/2000/svg" viewBox="0 0 19 19" id="tel">
    <path d="M18.8892 14.9113C18.8442 14.6326 18.6695 14.3945 18.4078 14.253L14.5374 11.9726L14.5055 11.9548C14.3492 11.8746 14.1683 11.8333 13.9825 11.8333C13.6583 11.8333 13.3486 11.9561 13.1337 12.1716L11.9913 13.3145C11.9424 13.3609 11.7831 13.4282 11.7348 13.4306C11.7216 13.4295 10.4056 13.3348 7.98287 10.9118C5.56448 8.49393 5.46188 7.1739 5.46107 7.1739C5.46242 7.1064 5.52884 6.94764 5.57609 6.8985L6.55024 5.92461C6.89341 5.58063 6.99629 5.01039 6.79271 4.56867L4.64134 0.52056C4.48501 0.19872 4.18127 0 3.84431 0C3.6059 0 3.37586 0.09882 3.19604 0.27837L0.540585 2.92788C0.285975 3.18114 0.0667349 3.62394 0.0189449 3.98034C-0.00427508 4.15071 -0.475425 8.21745 5.10007 13.7938C9.83345 18.5266 13.5243 18.8943 14.5436 18.8943C14.7628 18.8943 14.8905 18.8787 14.9151 18.8752C15.2704 18.8276 15.7127 18.6089 15.9657 18.3554L18.619 15.7024C18.8355 15.4848 18.9343 15.1972 18.8892 14.9113Z" fill="#0D49EC"></path>
  </symbol>
  <symbol fill="none" xmlns="http://www.w3.org/2000/svg" viewBox="0 0 17 15" id="arrow-right">
    <path d="M9.85209 13.3133C9.52306 13.686 9.51034 14.3052 9.82369 14.6963C10.137 15.0876 10.6577 15.1028 10.9866 14.7301L9.85209 13.3133ZM16.7447 8.20838C17.0737 7.83573 17.0864 7.21656 16.7731 6.82538C16.4597 6.43408 15.9391 6.41895 15.6102 6.7916L16.7447 8.20838ZM15.6102 8.20838C15.9391 8.58103 16.4597 8.5659 16.7731 8.1746C17.0864 7.78343 17.0737 7.16425 16.7447 6.7916L15.6102 8.20838ZM10.9866 0.269872C10.6577 -0.102741 10.137 -0.0876367 9.82369 0.303602C9.51034 0.694841 9.52306 1.31405 9.85209 1.68665L10.9866 0.269872ZM16.1774 8.47825C16.6317 8.47825 17 8.04025 17 7.49999C17 6.95973 16.6317 6.52173 16.1774 6.52173V8.47825ZM0.82258 6.52173C0.368286 6.52173 0 6.95973 0 7.49999C0 8.04025 0.368286 8.47825 0.82258 8.47825V6.52173ZM10.9866 14.7301L16.7447 8.20838L15.6102 6.7916L9.85209 13.3133L10.9866 14.7301ZM16.7447 6.7916L10.9866 0.269872L9.85209 1.68665L15.6102 8.20838L16.7447 6.7916ZM16.1774 6.52173H0.82258V8.47825H16.1774V6.52173Z" fill="#0D49EC"></path>
  </symbol>
  <symbol fill="none" xmlns="http://www.w3.org/2000/svg" viewBox="0 0 27 23" id="telegram">
    <path d="M24.8861 0.147166L1.24614 9.26317C-0.367191 9.91117 -0.357858 10.8112 0.950142 11.2125L7.01947 13.1058L21.0621 4.24583C21.7261 3.84183 22.3328 4.05917 21.8341 4.50183L10.4568 14.7698H10.4541L10.4568 14.7712L10.0381 21.0272C10.6515 21.0272 10.9221 20.7458 11.2661 20.4138L14.2141 17.5472L20.3461 22.0765C21.4768 22.6992 22.2888 22.3792 22.5701 21.0298L26.5955 2.05917C27.0075 0.407166 25.9648 -0.340834 24.8861 0.147166Z" fill="white"></path>
  </symbol>
  <symbol fill="none" xmlns="http://www.w3.org/2000/svg" viewBox="0 0 36 22" id="vk">
    <path d="M35.079 1.44408C35.3299 0.610959 35.079 0 33.893 0H29.9638C28.9641 0 28.5072 0.528542 28.2564 1.10904C28.2564 1.10904 26.2587 5.98058 23.4278 9.13929C22.5141 10.0584 22.0966 10.3487 21.5985 10.3487C21.3495 10.3487 20.9876 10.0584 20.9876 9.22529V1.44408C20.9876 0.444334 20.6991 0 19.866 0H13.6919C13.0684 0 12.6922 0.46225 12.6922 0.903C12.6922 1.849 14.1076 2.06758 14.2527 4.73358V10.5171C14.2527 11.7838 14.0252 12.0149 13.5235 12.0149C12.1923 12.0149 8.95296 7.12546 7.0305 1.52829C6.65604 0.44075 6.278 0.00179239 5.27467 0.00179239H1.34733C0.223959 0.00179239 0 0.530334 0 1.11083C0 2.15358 1.33121 7.31358 6.20096 14.138C9.44746 18.7982 14.018 21.3244 18.1818 21.3244C20.6776 21.3244 20.9858 20.7636 20.9858 19.7961V16.2737C20.9858 15.1521 21.2241 14.9264 22.0142 14.9264C22.5947 14.9264 23.5945 15.2202 25.9254 17.4652C28.5878 20.1276 29.0286 21.3226 30.5246 21.3226H34.452C35.5735 21.3226 36.1343 20.7618 35.8118 19.6546C35.4589 18.5527 34.1868 16.9492 32.499 15.0518C31.5817 13.9696 30.2111 12.805 29.7936 12.2228C29.2113 11.472 29.3797 11.1406 29.7936 10.4741C29.7954 10.4759 34.581 3.73563 35.079 1.44408Z" fill="white"></path>
  </symbol>
  <symbol fill="none" xmlns="http://www.w3.org/2000/svg" viewBox="0 0 25 25" id="punkt">
    <circle cx="12.5" cy="12.5" r="12" stroke="currentColor"></circle>
    <path d="M11.7175 17.9551V9.22781H13.0584V17.9551H11.7175ZM12.3993 7.77326C12.138 7.77326 11.9126 7.68424 11.7232 7.50621C11.5376 7.32818 11.4448 7.11417 11.4448 6.86417C11.4448 6.61417 11.5376 6.40015 11.7232 6.22212C11.9126 6.04409 12.138 5.95508 12.3993 5.95508C12.6607 5.95508 12.8842 6.04409 13.0698 6.22212C13.2592 6.40015 13.3539 6.61417 13.3539 6.86417C13.3539 7.11417 13.2592 7.32818 13.0698 7.50621C12.8842 7.68424 12.6607 7.77326 12.3993 7.77326Z" fill="currentColor"></path>
  </symbol>
</svg>